# This file uses centimeters as units for non-parametric coordinates.

mtllib Furniture_Tables_ZAGAS_CLAIRE-Desk.mtl


g default

# VertexData Begin
# Vertices (Number of Vertices = 212)
v -600 -349.5 650
v -600 -349.5 780
v -600 350.5 650
v -600 350.5 780
v -598 -348 634
v -598 -348 650
v -598 -283 0
v -598 -283 634
v -598 -267 16
v -598 -267 634
v -598 166 16
v -598 166 634
v -598 182 16
v -598 182 634
v -598 332 16
v -598 332 634
v -598 348 0
v -598 348 634
v -598 348 643
v -598 348 650
v -590 166 16.00001
v -590 182 16.00001
v -582 -332 634
v -582 -332 647
v -582 -292 647
v -582 -292 650
v -582 -283 0
v -582 -283 58
v -582 -283 634
v -582 -267 16
v -582 -267 58
v -582 -267 634
v -582 -25 647
v -582 -25 650
v -582 25 647
v -582 25 650
v -582 166 -1.110223e-16
v -582 166 16.00001
v -582 166 58
v -582 166 634
v -582 182 -1.110223e-16
v -582 182 16.00001
v -582 182 58
v -582 182 634
v -582 292 647
v -582 292 650
v -582 332 16
v -582 332 58
v -582 332 634
v -582 332 643
v -582 332 647
v -582 348 0
v -582 348 58
v -582 348 634
v -581 -349.5 669
v -581 -349.5 761
v -581 336.5 669
v -581 336.5 761
v -581 342.5 669
v -581 342.5 761
v -581 350.5 669
v -581 350.5 761
v -542 -25 647
v -542 -25 650
v -542 25 647
v -542 25 650
v -532 -332 647
v -532 -332 650
v -532 -292 647
v -532 -292 650
v -532 292 647
v -532 292 650
v -532 332 647
v -532 332 650
v -250 -350.5 671
v -250 -350.5 759
v -250 -344.5 671
v -250 -344.5 759
v -250 -330.5 671
v -250 -330.5 759
v -244 -350.5 677
v -244 -350.5 753
v -240 -330.5 669
v -240 -330.5 761
v -240 336.5 669
v -240 336.5 761
v -221 -330.5 669
v -221 -330.5 761
v -221 336.5 669
v -221 336.5 761
v -210.6667 -332 647
v -210.6667 -332 650
v -210.6667 -292 647
v -210.6667 -292 650
v -210.6667 292 647
v -210.6667 292 650
v -210.6667 332 647
v -210.6667 332 650
v -160.6667 -332 647
v -160.6667 -332 650
v -160.6667 -292 647
v -160.6667 -292 650
v -160.6667 292 647
v -160.6667 292 650
v -160.6667 332 647
v -160.6667 332 650
v 160.6667 -332 647
v 160.6667 -332 650
v 160.6667 -292 647
v 160.6667 -292 650
v 160.6667 292 647
v 160.6667 292 650
v 160.6667 332 647
v 160.6667 332 650
v 210.6667 -332 647
v 210.6667 -332 650
v 210.6667 -292 647
v 210.6667 -292 650
v 210.6667 292 647
v 210.6667 292 650
v 210.6667 332 647
v 210.6667 332 650
v 221 -330.5 669
v 221 -330.5 761
v 221 336.5 669
v 221 336.5 761
v 240 -330.5 669
v 240 -330.5 761
v 240 336.5 669
v 240 336.5 761
v 244 -350.5 677
v 244 -350.5 753
v 250 -350.5 671
v 250 -350.5 759
v 250 -344.5 671
v 250 -344.5 759
v 250 -330.5 671
v 250 -330.5 759
v 532 -332 647
v 532 -332 650
v 532 -292 647
v 532 -292 650
v 532 292 647
v 532 292 650
v 532 332 647
v 532 332 650
v 542 -25 647
v 542 -25 650
v 542 25 647
v 542 25 650
v 581 -349.5 669
v 581 -349.5 761
v 581 336.5 669
v 581 336.5 761
v 581 342.5 669
v 581 342.5 761
v 581 350.5 669
v 581 350.5 761
v 582 -332 634
v 582 -332 647
v 582 -292 647
v 582 -292 650
v 582 -283 0
v 582 -283 58
v 582 -283 634
v 582 -267 16
v 582 -267 58
v 582 -267 634
v 582 -25 647
v 582 -25 650
v 582 25 647
v 582 25 650
v 582 166 -1.106434e-16
v 582 166 16.00001
v 582 166 58
v 582 166 634
v 582 182 -1.106434e-16
v 582 182 16.00001
v 582 182 58
v 582 182 634
v 582 292 647
v 582 292 650
v 582 332 16
v 582 332 58
v 582 332 634
v 582 332 643
v 582 332 647
v 582 348 0
v 582 348 58
v 582 348 634
v 590 166 16.00001
v 590 182 16.00001
v 598 -348 634
v 598 -348 650
v 598 -283 0
v 598 -283 634
v 598 -267 16
v 598 -267 634
v 598 166 16
v 598 166 634
v 598 182 16
v 598 182 634
v 598 332 16
v 598 332 634
v 598 348 0
v 598 348 634
v 598 348 643
v 598 348 650
v 600 -349.5 650
v 600 -349.5 780
v 600 350.5 650
v 600 350.5 780

# Texture coordinates (Number of texture coordinates = 260)
vt -0.392 0.608
vt -0.392 0.868
vt -0.392 0.932
vt -0.392 2
vt -0.392 2.064
vt -0.392 2.664
vt -0.392 2.728
vt -0.392 3.328
vt -0.392 3.392
vt -0.392 4.536
vt -0.392 4.572
vt -0.392 4.6
vt -0.36 2.064
vt -0.36 2.664
vt -0.36 2.728
vt -0.328 0.672
vt -0.328 0.832
vt -0.328 0.868
vt -0.328 0.932
vt -0.328 1.9
vt -0.328 2
vt -0.328 2.064
vt -0.328 2.1
vt -0.328 2.232
vt -0.328 2.664
vt -0.328 2.728
vt -0.328 3.168
vt -0.328 3.328
vt -0.328 3.392
vt -0.328 4.536
vt -0.328 4.572
vt -0.328 4.588
vt -0.328 4.6
vt -0.28 -0.1
vt -0.28 0.1505
vt -0.28 0.8505
vt -0.28 1.1
vt -0.261 -0.081
vt -0.261 0.1505
vt -0.261 0.8505
vt -0.261 1.081
vt -0.169 -0.081
vt -0.169 0.1505
vt -0.169 0.8505
vt -0.169 1.081
vt -0.168 1.9
vt -0.168 2.1
vt -0.168 4.588
vt -0.168 4.6
vt -0.15 -0.1
vt -0.15 0.1505
vt -0.15 0.8505
vt -0.15 1.1
vt -0.128 0.672
vt -0.128 0.832
vt -0.128 3.168
vt -0.128 3.328
vt -0.128 4.588
vt -0.128 4.6
vt -0.1 0.1505
vt -0.1 0.8505
vt -0.1 1.15
vt -0.1 1.28
vt -0.081 0.1505
vt -0.081 0.8365
vt -0.081 0.8425
vt -0.081 0.8505
vt -0.081 1.169
vt -0.081 1.261
vt 0.018 2.781
vt 0.018 3.009
vt 0.1575 1.169
vt 0.1575 1.261
vt 0.1635 0.26
vt 0.1635 0.279
vt 0.1635 0.721
vt 0.1635 0.74
vt 0.1635 1.169
vt 0.1635 1.261
vt 0.1695 0.26
vt 0.1695 0.279
vt 0.1695 0.721
vt 0.1695 0.74
vt 0.1695 1.169
vt 0.1695 1.261
vt 0.26 1.169
vt 0.26 1.261
vt 0.279 1.169
vt 0.279 1.261
vt 0.608 2
vt 0.608 2.232
vt 0.608 4.536
vt 0.608 4.572
vt 0.608 4.6
vt 0.672 2.064
vt 0.672 2.232
vt 0.672 4.536
vt 0.672 4.572
vt 0.672 4.588
vt 0.672 4.6
vt 0.721 1.169
vt 0.721 1.261
vt 0.74 1.169
vt 0.74 1.261
vt 0.8305 0.26
vt 0.8305 0.279
vt 0.8305 0.721
vt 0.8305 0.74
vt 0.8305 1.169
vt 0.8305 1.261
vt 0.832 4.588
vt 0.832 4.6
vt 0.8365 0.26
vt 0.8365 0.279
vt 0.8365 0.721
vt 0.8365 0.74
vt 0.8365 1.169
vt 0.8365 1.261
vt 0.8425 1.169
vt 0.8425 1.261
vt 0.868 2
vt 0.868 2.232
vt 0.868 4.536
vt 0.932 2.064
vt 0.932 2.232
vt 0.932 4.536
vt 1.081 0.1505
vt 1.081 0.8365
vt 1.081 0.8425
vt 1.081 0.8505
vt 1.081 1.169
vt 1.081 1.261
vt 1.1 0.1505
vt 1.1 0.8505
vt 1.1 1.15
vt 1.1 1.28
vt 1.15 -0.1
vt 1.15 0.1505
vt 1.15 0.8505
vt 1.15 1.1
vt 1.157333 0.672
vt 1.157333 0.832
vt 1.157333 3.168
vt 1.157333 3.328
vt 1.157333 4.588
vt 1.157333 4.6
vt 1.169 -0.081
vt 1.169 0.1505
vt 1.169 0.8505
vt 1.169 1.081
vt 1.261 -0.081
vt 1.261 0.1505
vt 1.261 0.8505
vt 1.261 1.081
vt 1.272 2
vt 1.272 2.064
vt 1.272 2.232
vt 1.272 4.536
vt 1.28 -0.1
vt 1.28 0.1505
vt 1.28 0.8505
vt 1.28 1.1
vt 1.336 2
vt 1.336 2.064
vt 1.336 2.232
vt 1.336 4.536
vt 1.357333 0.672
vt 1.357333 0.832
vt 1.357333 3.168
vt 1.357333 3.328
vt 1.357333 4.588
vt 1.357333 4.6
vt 1.482 2.781
vt 1.482 3.009
vt 1.9 4.588
vt 1.9 4.6
vt 2.1 4.588
vt 2.1 4.6
vt 2.642667 0.672
vt 2.642667 0.832
vt 2.642667 3.168
vt 2.642667 3.328
vt 2.642667 4.588
vt 2.642667 4.6
vt 2.664 2
vt 2.664 2.064
vt 2.664 2.232
vt 2.664 4.536
vt 2.728 2
vt 2.728 2.064
vt 2.728 2.232
vt 2.728 4.536
vt 2.842667 0.672
vt 2.842667 0.832
vt 2.842667 3.168
vt 2.842667 3.328
vt 2.842667 4.588
vt 2.842667 4.6
vt 3.068 2.064
vt 3.068 2.232
vt 3.068 4.536
vt 3.132 2
vt 3.132 2.232
vt 3.132 4.536
vt 3.168 4.588
vt 3.168 4.6
vt 3.328 2.064
vt 3.328 2.232
vt 3.328 4.536
vt 3.328 4.572
vt 3.328 4.588
vt 3.328 4.6
vt 3.392 2
vt 3.392 2.232
vt 3.392 4.536
vt 3.392 4.572
vt 3.392 4.6
vt 4.128 0.672
vt 4.128 0.832
vt 4.128 3.168
vt 4.128 3.328
vt 4.128 4.588
vt 4.128 4.6
vt 4.168 1.9
vt 4.168 2.1
vt 4.168 4.588
vt 4.168 4.6
vt 4.328 0.672
vt 4.328 0.832
vt 4.328 0.868
vt 4.328 0.932
vt 4.328 1.9
vt 4.328 2
vt 4.328 2.064
vt 4.328 2.1
vt 4.328 2.232
vt 4.328 2.664
vt 4.328 2.728
vt 4.328 3.168
vt 4.328 3.328
vt 4.328 3.392
vt 4.328 4.536
vt 4.328 4.572
vt 4.328 4.588
vt 4.328 4.6
vt 4.36 2.064
vt 4.36 2.664
vt 4.36 2.728
vt 4.392 0.608
vt 4.392 0.868
vt 4.392 0.932
vt 4.392 2
vt 4.392 2.064
vt 4.392 2.664
vt 4.392 2.728
vt 4.392 3.328
vt 4.392 3.392
vt 4.392 4.536
vt 4.392 4.572
vt 4.392 4.6

# Vertex normals (Number of vertex normals = 10)
vn -1 0 0
vn -0.7071067 0 -0.7071068
vn -0.7071067 0 0.7071068
vn 0 -1 0
vn 0 0 -1
vn 0 0 1
vn 0 1 0
vn 0.7071067 0 -0.7071068
vn 0.7071067 0 0.7071068
vn 1 0 0

# VertexData End
# Elements Begin

# Faces (Number of Faces = 480)

usemtl 0397ac55_1ee0_461e_a79b_41abaa7f8b54
f 84/87/4 83/86/4 87/88/4
f 87/88/4 88/89/4 84/87/4
f 88/85/10 87/84/10 89/117/10
f 89/117/10 90/118/10 88/85/10
f 90/102/7 89/101/7 85/103/7
f 85/103/7 86/104/7 90/102/7
f 86/79/1 85/78/1 83/109/1
f 83/109/1 84/110/1 86/79/1
f 87/81/5 83/80/5 85/113/5
f 85/113/5 89/114/5 87/81/5
f 86/74/6 84/105/6 88/106/6
f 88/106/6 90/75/6 86/74/6
f 124/102/4 123/101/4 127/103/4
f 127/103/4 128/104/4 124/102/4
f 128/85/10 127/84/10 129/117/10
f 129/117/10 130/118/10 128/85/10
f 130/87/7 129/86/7 125/88/7
f 125/88/7 126/89/7 130/87/7
f 126/79/1 125/78/1 123/109/1
f 123/109/1 124/110/1 126/79/1
f 127/83/5 123/82/5 125/115/5
f 125/115/5 129/116/5 127/83/5
f 126/76/6 124/107/6 128/108/6
f 128/108/6 130/77/6 126/76/6

usemtl 46e8f751_19c0_46aa_ad32_d94a5a3d2296
f 82/71/4 81/70/4 131/173/4
f 131/173/4 132/174/4 82/71/4

usemtl 60abdfa5_a981_48fe_8629_75629f54fc02
f 78//4 77//4 135//4
f 135//4 136//4 78//4
f 136//10 135//10 137//10
f 137//10 138//10 136//10
f 138//7 137//7 79//7
f 79//7 80//7 138//7
f 80//1 79//1 77//1
f 77//1 78//1 80//1
f 135//5 77//5 79//5
f 79//5 137//5 135//5
f 80//6 78//6 136//6
f 136//6 138//6 80//6

usemtl 0397ac55_1ee0_461e_a79b_41abaa7f8b54
f 58/69/4 57/68/4 153/131/4
f 153/131/4 154/132/4 58/69/4
f 154/118/10 153/117/10 155/119/10
f 155/119/10 156/120/10 154/118/10
f 156/69/7 155/68/7 59/131/7
f 59/131/7 60/132/7 156/69/7
f 60/73/1 59/72/1 57/78/1
f 57/78/1 58/79/1 60/73/1
f 153/65/5 57/128/5 59/129/5
f 59/129/5 155/66/5 153/65/5
f 60/66/6 58/65/6 154/128/6
f 154/128/6 156/129/6 60/66/6

usemtl 60abdfa5_a981_48fe_8629_75629f54fc02
f 81//4 82//4 76//4
f 76//4 75//4 81//4
f 133//4 81//4 75//4
f 134//4 76//4 82//4
f 82//4 132//4 134//4
f 132//4 131//4 133//4
f 133//4 134//4 132//4
f 81//4 133//4 131//4
f 134//10 133//10 135//10
f 135//10 136//10 134//10
f 136//7 135//7 77//7
f 77//7 78//7 136//7
f 78//1 77//1 75//1
f 75//1 76//1 78//1
f 133//5 75//5 77//5
f 77//5 135//5 133//5
f 78//6 76//6 134//6
f 134//6 136//6 78//6

usemtl 2b54648d_2ce9_4f1f_ada3_4f151650571c
f 168/231/6 165/230/6 196/250/6
f 196/250/6 198/251/6 168/231/6
f 180/238/6 176/237/6 200/254/6
f 200/254/6 202/255/6 180/238/6
f 190/241/6 185/240/6 204/256/6
f 204/256/6 206/257/6 190/241/6
f 196/258/4 165/242/4 164/236/4
f 164/236/4 195/252/4 196/258/4
f 195/252/4 164/236/4 163/233/4
f 167/24/7 197/5/7 166/22/7
f 167/24/7 168/30/7 198/10/7
f 198/10/7 197/5/7 167/24/7
f 176/242/4 191/246/4 200/258/4
f 175/236/4 191/246/4 176/242/4
f 175/236/4 174/234/4 191/246/4
f 200/258/4 191/246/4 199/253/4
f 166/231/6 191/247/6 174/237/6
f 199/254/6 191/247/6 197/251/6
f 166/231/6 197/251/6 191/247/6
f 179/24/7 192/13/7 178/22/7
f 202/10/7 201/5/7 192/13/7
f 192/13/7 180/30/7 202/10/7
f 179/24/7 180/30/7 192/13/7
f 185/242/4 184/236/4 203/253/4
f 203/253/4 204/258/4 185/242/4
f 203/253/4 184/236/4 183/234/4
f 203/256/6 183/240/6 178/238/6
f 178/238/6 192/248/6 203/256/6
f 203/256/6 192/248/6 201/255/6
f 203/207/10 201/190/10 205/213/10
f 199/186/10 205/213/10 201/190/10
f 206/215/10 203/207/10 205/213/10
f 203/207/10 206/215/10 204/209/10
f 202/192/10 200/188/10 201/190/10
f 197/124/10 195/121/10 199/186/10
f 205/213/10 199/186/10 195/121/10
f 196/123/10 195/121/10 197/124/10
f 197/124/10 198/126/10 196/123/10
f 201/190/10 200/188/10 199/186/10
f 206/10/7 205/4/7 189/24/7
f 189/24/7 190/30/7 206/10/7
f 205/4/7 188/21/7 189/24/7
f 173/25/5 205/9/5 195/2/5
f 195/2/5 163/18/5 173/25/5
f 188/29/5 205/9/5 177/26/5
f 173/25/5 177/26/5 205/9/5
f 164/203/1 167/200/1 166/199/1
f 166/199/1 163/202/1 164/203/1
f 174/164/1 173/163/1 166/199/1
f 163/202/1 166/199/1 173/163/1
f 178/156/1 173/163/1 174/164/1
f 168/201/1 167/200/1 164/203/1
f 164/203/1 165/204/1 168/201/1
f 175/165/1 176/166/1 180/158/1
f 175/165/1 179/157/1 178/156/1
f 178/156/1 174/164/1 175/165/1
f 183/95/1 177/155/1 178/156/1
f 173/163/1 178/156/1 177/155/1
f 189/91/1 183/95/1 184/96/1
f 177/155/1 183/95/1 188/90/1
f 188/90/1 183/95/1 189/91/1
f 175/165/1 180/158/1 179/157/1
f 189/91/1 184/96/1 185/97/1
f 185/97/1 190/92/1 189/91/1

usemtl 0397ac55_1ee0_461e_a79b_41abaa7f8b54
f 3/134/8 61/130/8 55/127/8
f 55/127/8 1/133/8 3/134/8
f 4/61/9 2/60/9 56/64/9
f 56/64/9 62/67/9 4/61/9
f 4/161/1 3/139/1 1/138/1
f 1/138/1 2/160/1 4/161/1
f 2/34/4 1/50/4 55/42/4
f 55/42/4 56/38/4 2/34/4
f 56/39/10 55/43/10 61/44/10
f 61/44/10 62/40/10 56/39/10
f 62/151/7 61/147/7 3/137/7
f 3/137/7 4/159/7 62/151/7
f 210/133/3 158/130/3 152/127/3
f 158/130/3 210/133/3 212/134/3
f 209/60/2 151/64/2 157/67/2
f 157/67/2 211/61/2 209/60/2
f 210/35/10 209/51/10 211/52/10
f 211/52/10 212/36/10 210/35/10
f 152/41/4 151/45/4 209/53/4
f 209/53/4 210/37/4 152/41/4
f 212/162/7 211/140/7 157/150/7
f 157/150/7 158/154/7 212/162/7
f 158/153/1 157/149/1 151/148/1
f 151/148/1 152/152/1 158/153/1

usemtl 2b54648d_2ce9_4f1f_ada3_4f151650571c
f 38/164/1 42/156/1 41/155/1
f 41/155/1 37/163/1 38/164/1
f 174/186/10 173/185/10 177/189/10
f 177/189/10 178/190/10 174/186/10
f 38/22/4 37/21/4 173/233/4
f 173/233/4 174/234/4 38/22/4
f 178/22/7 177/21/7 41/233/7
f 41/233/7 42/234/7 178/22/7
f 42/26/6 38/25/6 174/237/6
f 174/237/6 178/238/6 42/26/6
f 37/237/5 41/238/5 177/26/5
f 177/26/5 173/25/5 37/237/5

usemtl 0397ac55_1ee0_461e_a79b_41abaa7f8b54
f 62/130/2 2/133/2 4/134/2
f 2/133/2 62/130/2 56/127/2
f 210/60/8 152/64/8 158/67/8
f 158/67/8 212/61/8 210/60/8
f 4/61/6 2/60/6 210/133/6
f 210/133/6 212/134/6 4/61/6
f 56/69/4 152/132/4 210/136/4
f 210/136/4 2/63/4 56/69/4
f 4/136/7 212/63/7 158/69/7
f 158/69/7 62/132/7 4/136/7
f 152/64/5 56/127/5 62/130/5
f 62/130/5 158/67/5 152/64/5
f 3/61/3 1/60/3 55/64/3
f 55/64/3 61/67/3 3/61/3
f 209/133/9 157/130/9 151/127/9
f 157/130/9 209/133/9 211/134/9
f 209/60/5 1/133/5 3/134/5
f 3/134/5 211/61/5 209/60/5
f 151/131/4 55/68/4 1/62/4
f 1/62/4 209/135/4 151/131/4
f 211/62/7 3/135/7 61/131/7
f 61/131/7 157/68/7 211/62/7
f 61/67/6 55/64/6 151/127/6
f 151/127/6 157/130/6 61/67/6

usemtl 2b54648d_2ce9_4f1f_ada3_4f151650571c
f 16/8/6 49/28/6 54/29/6
f 54/29/6 18/9/6 16/8/6
f 8/2/6 29/18/6 32/19/6
f 32/19/6 10/3/6 8/2/6
f 12/6/6 40/25/6 44/26/6
f 44/26/6 14/7/6 12/6/6
f 8/10/4 7/4/4 28/24/4
f 28/24/4 29/30/4 8/10/4
f 7/4/4 27/21/4 28/24/4
f 31/236/7 30/234/7 9/253/7
f 31/236/7 9/253/7 10/258/7
f 10/258/7 32/242/7 31/236/7
f 40/30/4 12/10/4 21/13/4
f 39/24/4 40/30/4 21/13/4
f 39/24/4 21/13/4 38/22/4
f 12/10/4 11/5/4 21/13/4
f 30/19/6 38/25/6 21/14/6
f 11/6/6 9/3/6 21/14/6
f 30/19/6 21/14/6 9/3/6
f 43/236/7 42/234/7 22/246/7
f 14/258/7 22/246/7 13/253/7
f 22/246/7 14/258/7 44/242/7
f 43/236/7 22/246/7 44/242/7
f 49/30/4 16/10/4 15/5/4
f 15/5/4 48/24/4 49/30/4
f 15/5/4 47/22/4 48/24/4
f 15/8/6 22/15/6 42/26/6
f 42/26/6 47/28/6 15/8/6
f 15/8/6 13/7/6 22/15/6
f 27/230/5 7/250/5 17/257/5
f 17/257/5 37/237/5 27/230/5
f 17/257/5 52/241/5 41/238/5
f 37/237/5 17/257/5 41/238/5
f 15/95/1 17/90/1 13/156/1
f 11/164/1 13/156/1 17/90/1
f 18/92/1 17/90/1 15/95/1
f 15/95/1 16/97/1 18/92/1
f 14/158/1 13/156/1 12/166/1
f 9/199/1 11/164/1 7/202/1
f 17/90/1 7/202/1 11/164/1
f 8/204/1 9/199/1 7/202/1
f 9/199/1 8/204/1 10/201/1
f 13/156/1 11/164/1 12/166/1
f 17/252/7 53/236/7 52/233/7
f 54/242/7 53/236/7 17/252/7
f 17/252/7 18/258/7 54/242/7
f 28/122/10 27/121/10 30/124/10
f 30/124/10 31/125/10 28/122/10
f 38/186/10 30/124/10 37/185/10
f 27/121/10 37/185/10 30/124/10
f 42/190/10 38/186/10 37/185/10
f 32/126/10 29/123/10 28/122/10
f 28/122/10 31/125/10 32/126/10
f 39/187/10 44/192/10 40/188/10
f 39/187/10 38/186/10 42/190/10
f 42/190/10 43/191/10 39/187/10
f 47/207/10 41/189/10 52/213/10
f 53/214/10 47/207/10 52/213/10
f 42/190/10 41/189/10 47/207/10
f 41/189/10 42/190/10 37/185/10
f 49/209/10 48/208/10 53/214/10
f 53/214/10 54/215/10 49/209/10
f 53/214/10 48/208/10 47/207/10
f 39/187/10 43/191/10 44/192/10
f 162/33/7 161/32/7 141/58/7
f 141/58/7 142/59/7 162/33/7
f 142/206/1 141/205/1 139/211/1
f 139/211/1 140/212/1 142/206/1
f 160/16/5 139/54/5 141/55/5
f 141/55/5 161/17/5 160/16/5
f 68/100/10 67/99/10 69/111/10
f 69/111/10 70/112/10 68/100/10
f 70/223/7 69/222/7 25/244/7
f 25/244/7 26/245/7 70/223/7
f 67/218/5 24/228/5 25/229/5
f 25/229/5 69/219/5 67/218/5
f 116/100/10 115/99/10 117/111/10
f 117/111/10 118/112/10 116/100/10
f 118/146/7 117/145/7 109/171/7
f 109/171/7 110/172/7 118/146/7
f 110/206/1 109/205/1 107/211/1
f 107/211/1 108/212/1 110/206/1
f 115/141/5 107/167/5 109/168/5
f 109/168/5 117/142/5 115/141/5
f 100/100/10 99/99/10 101/111/10
f 101/111/10 102/112/10 100/100/10
f 102/184/7 101/183/7 93/197/7
f 93/197/7 94/198/7 102/184/7
f 94/206/1 93/205/1 91/211/1
f 91/211/1 92/212/1 94/206/1
f 99/179/5 91/193/5 93/194/5
f 93/194/5 101/180/5 99/179/5
f 144/223/4 143/222/4 181/244/4
f 181/244/4 182/245/4 144/223/4
f 146/100/1 145/99/1 143/111/1
f 143/111/1 144/112/1 146/100/1
f 181/27/5 143/56/5 145/57/5
f 145/57/5 187/28/5 181/27/5
f 46/33/4 45/32/4 71/58/4
f 71/58/4 72/59/4 46/33/4
f 72/206/10 71/205/10 73/211/10
f 73/211/10 74/212/10 72/206/10
f 71/220/5 45/239/5 51/240/5
f 51/240/5 73/221/5 71/220/5
f 112/184/4 111/183/4 119/197/4
f 119/197/4 120/198/4 112/184/4
f 120/206/10 119/205/10 121/211/10
f 121/211/10 122/212/10 120/206/10
f 114/100/1 113/99/1 111/111/1
f 111/111/1 112/112/1 114/100/1
f 119/143/5 111/169/5 113/170/5
f 113/170/5 121/144/5 119/143/5
f 96/146/4 95/145/4 103/171/4
f 103/171/4 104/172/4 96/146/4
f 104/206/10 103/205/10 105/211/10
f 105/211/10 106/212/10 104/206/10
f 98/100/1 97/99/1 95/111/1
f 95/111/1 96/112/1 98/100/1
f 103/181/5 95/195/5 97/196/5
f 97/196/5 105/182/5 103/181/5
f 148/227/4 147/226/4 169/244/4
f 169/244/4 170/245/4 148/227/4
f 172/33/7 171/32/7 149/48/7
f 149/48/7 150/49/7 172/33/7
f 150/176/1 149/175/1 147/177/1
f 147/177/1 148/178/1 150/176/1
f 169/20/5 147/46/5 149/47/5
f 149/47/5 171/23/5 169/20/5
f 34/33/4 33/32/4 63/48/4
f 63/48/4 64/49/4 34/33/4
f 64/176/10 63/175/10 65/177/10
f 65/177/10 66/178/10 64/176/10
f 66/227/7 65/226/7 35/244/7
f 35/244/7 36/245/7 66/227/7
f 63/224/5 33/232/5 35/235/5
f 35/235/5 65/225/5 63/224/5
f 6/12/4 5/10/4 193/258/4
f 193/258/4 194/260/4 6/12/4
f 113/183/4 186/243/4 121/197/4
f 145/222/4 146/223/4 122/198/4
f 122/198/4 121/197/4 145/222/4
f 186/243/4 145/222/4 121/197/4
f 113/183/4 185/242/4 186/243/4
f 187/244/4 145/222/4 186/243/4
f 106/172/4 105/171/4 113/183/4
f 113/183/4 114/184/4 106/172/4
f 113/183/4 105/171/4 185/242/4
f 50/31/4 49/30/4 105/171/4
f 185/242/4 105/171/4 49/30/4
f 97/145/4 50/31/4 105/171/4
f 51/32/4 50/31/4 73/58/4
f 74/59/4 73/58/4 97/145/4
f 97/145/4 98/146/4 74/59/4
f 73/58/4 50/31/4 97/145/4
f 67/222/7 23/242/7 24/244/7
f 67/222/7 68/223/7 92/198/7
f 92/198/7 91/197/7 67/222/7
f 23/242/7 67/222/7 91/197/7
f 91/197/7 99/183/7 23/242/7
f 99/183/7 100/184/7 108/172/7
f 108/172/7 107/171/7 99/183/7
f 23/242/7 99/183/7 107/171/7
f 107/171/7 159/30/7 23/242/7
f 159/30/7 107/171/7 115/145/7
f 160/32/7 159/30/7 139/58/7
f 115/145/7 139/58/7 159/30/7
f 115/145/7 116/146/7 140/59/7
f 140/59/7 139/58/7 115/145/7
f 26/17/6 6/1/6 68/54/6
f 92/141/6 68/54/6 6/1/6
f 64/46/6 66/47/6 36/23/6
f 36/23/6 34/20/6 64/46/6
f 6/1/6 26/17/6 34/20/6
f 70/55/6 26/17/6 68/54/6
f 36/23/6 6/1/6 34/20/6
f 100/167/6 102/168/6 94/142/6
f 94/142/6 92/141/6 100/167/6
f 6/1/6 100/167/6 92/141/6
f 6/1/6 194/249/6 108/179/6
f 108/179/6 100/167/6 6/1/6
f 46/27/6 74/57/6 20/9/6
f 36/23/6 46/27/6 20/9/6
f 72/56/6 74/57/6 46/27/6
f 6/1/6 36/23/6 20/9/6
f 104/169/6 106/170/6 98/144/6
f 98/144/6 96/143/6 104/169/6
f 20/9/6 74/57/6 98/144/6
f 20/9/6 98/144/6 106/170/6
f 208/257/6 20/9/6 106/170/6
f 106/170/6 114/182/6 208/257/6
f 116/193/6 118/194/6 110/180/6
f 110/180/6 108/179/6 116/193/6
f 194/249/6 116/193/6 108/179/6
f 140/218/6 116/193/6 194/249/6
f 142/219/6 140/218/6 162/229/6
f 194/249/6 162/229/6 140/218/6
f 194/249/6 170/232/6 162/229/6
f 170/232/6 172/235/6 150/225/6
f 150/225/6 148/224/6 170/232/6
f 170/232/6 194/249/6 172/235/6
f 120/195/6 122/196/6 114/182/6
f 114/182/6 112/181/6 120/195/6
f 208/257/6 114/182/6 122/196/6
f 208/257/6 146/221/6 182/239/6
f 182/239/6 146/221/6 144/220/6
f 172/235/6 208/257/6 182/239/6
f 122/196/6 146/221/6 208/257/6
f 208/257/6 172/235/6 194/249/6
f 207/216/10 204/209/10 206/215/10
f 194/94/10 207/216/10 208/217/10
f 204/209/10 207/216/10 202/192/10
f 202/192/10 207/216/10 200/188/10
f 207/216/10 194/94/10 198/126/10
f 194/94/10 193/92/10 196/123/10
f 198/126/10 194/94/10 196/123/10
f 200/188/10 207/216/10 198/126/10
f 19/93/1 18/92/1 16/97/1
f 6/217/1 20/94/1 19/93/1
f 16/97/1 14/158/1 19/93/1
f 14/158/1 12/166/1 19/93/1
f 19/93/1 10/201/1 6/217/1
f 6/217/1 8/204/1 5/215/1
f 10/201/1 8/204/1 6/217/1
f 12/166/1 10/201/1 19/93/1
f 207/11/7 206/10/7 190/30/7
f 208/12/7 207/11/7 19/259/7
f 19/259/7 20/260/7 208/12/7
f 19/259/7 207/11/7 190/30/7
f 190/30/7 54/242/7 19/259/7
f 19/259/7 54/242/7 18/258/7
f 25/111/10 24/99/10 23/97/10
f 23/97/10 29/123/10 25/111/10
f 32/126/10 25/111/10 29/123/10
f 34/176/10 26/112/10 25/111/10
f 25/111/10 33/175/10 34/176/10
f 33/175/10 25/111/10 32/126/10
f 33/175/10 32/126/10 40/188/10
f 50/210/10 40/188/10 44/192/10
f 44/192/10 49/209/10 50/210/10
f 35/177/10 40/188/10 50/210/10
f 46/206/10 36/178/10 35/177/10
f 35/177/10 45/205/10 46/206/10
f 50/210/10 51/211/10 45/205/10
f 45/205/10 35/177/10 50/210/10
f 33/175/10 40/188/10 35/177/10
f 161/205/1 165/204/1 159/209/1
f 159/209/1 160/211/1 161/205/1
f 168/201/1 165/204/1 161/205/1
f 161/205/1 162/206/1 170/178/1
f 170/178/1 169/177/1 161/205/1
f 169/177/1 168/201/1 161/205/1
f 169/177/1 176/166/1 168/201/1
f 186/98/1 180/158/1 176/166/1
f 180/158/1 186/98/1 185/97/1
f 171/175/1 186/98/1 176/166/1
f 182/112/1 181/111/1 171/175/1
f 171/175/1 172/176/1 182/112/1
f 186/98/1 181/111/1 187/99/1
f 181/111/1 186/98/1 171/175/1
f 169/177/1 171/175/1 176/166/1
f 23/228/5 5/249/5 8/250/5
f 10/251/5 32/231/5 29/230/5
f 29/230/5 8/250/5 10/251/5
f 32/231/5 10/251/5 12/254/5
f 12/254/5 40/237/5 32/231/5
f 23/228/5 8/250/5 29/230/5
f 159/16/5 193/1/5 5/249/5
f 5/249/5 23/228/5 159/16/5
f 16/256/5 49/240/5 44/238/5
f 44/238/5 14/255/5 16/256/5
f 16/256/5 18/257/5 54/241/5
f 54/241/5 49/240/5 16/256/5
f 40/237/5 12/254/5 14/255/5
f 14/255/5 44/238/5 40/237/5
f 190/29/5 185/28/5 49/240/5
f 49/240/5 54/241/5 190/29/5
f 168/19/5 198/3/5 196/2/5
f 196/2/5 165/18/5 168/19/5
f 159/16/5 165/18/5 196/2/5
f 159/16/5 196/2/5 193/1/5
f 198/3/5 168/19/5 176/25/5
f 176/25/5 200/6/5 198/3/5
f 206/9/5 204/8/5 185/28/5
f 185/28/5 190/29/5 206/9/5
f 180/26/5 185/28/5 204/8/5
f 204/8/5 202/7/5 180/26/5
f 180/26/5 202/7/5 200/6/5
f 200/6/5 176/25/5 180/26/5

# Elements End

# endsolid Furniture_Tables_ZAGAS_CLAIRE-Desk
